<?xml version="1.0" encoding="iso-8859-1"?>
<!-- Generator: Adobe Illustrator 18.0.0, SVG Export Plug-In . SVG Version: 6.00 Build 0)  -->
<!DOCTYPE svg PUBLIC "-//W3C//DTD SVG 1.1//EN" "http://www.w3.org/Graphics/SVG/1.1/DTD/svg11.dtd">
<svg version="1.1" id="Capa_1" xmlns="http://www.w3.org/2000/svg" xmlns:xlink="http://www.w3.org/1999/xlink" x="0px" y="0px"
	 viewBox="0 0 358.666 358.666" style="enable-background:new 0 0 358.666 358.666;" xml:space="preserve">
<path d="M352.666,263.008h-96.323l-0.157-5.336l3.982-0.717c1.142-0.206,2.138-0.896,2.73-1.894l24.988-42.064l27.47,1.996
	c12.243,0.889,19.507-5.453,20.392-17.628l2.04-28.069c5.973-0.191,10.93-4.92,11.366-10.923l0.75-10.316
	c0.471-6.479-4.418-12.133-10.896-12.605l-35.481-2.579c-0.774-19.265-15.946-35.346-35.622-36.777
	c-0.936-0.068-1.883-0.102-2.818-0.102c-18.564,0-34.369,13.456-37.744,31.342l-93.56-6.8c-0.774-19.265-15.945-35.347-35.62-36.777
	c-0.936-0.068-1.883-0.102-2.818-0.102c-18.565,0-34.371,13.455-37.747,31.342l-35.485-2.579
	c-6.51-0.465-12.137,4.485-12.602,10.897l-0.75,10.315c-0.471,6.48,4.416,12.134,10.894,12.605l2.576,0.187l-0.722,9.931
	c-0.467,6.414,4.992,10.015,9.396,11.524l6.104,13.81c0.526,1.19,1.597,2.049,2.872,2.305l51.471,10.331l28.107,55.84
	c0.525,1.044,1.482,1.807,2.618,2.086l11.894,2.925l0.953,5.712c0.135,0.814,0.534,1.541,1.097,2.118H6c-3.314,0-6,2.686-6,6
	c0,3.313,2.686,6,6,6h346.666c3.314,0,6-2.687,6-6C358.666,265.695,355.979,263.008,352.666,263.008z M74.979,120.626
	c0.773-10.636,9.719-18.968,20.367-18.968c0.501,0,1.01,0.019,1.513,0.055c11.244,0.817,19.726,10.631,18.909,21.877
	c-0.773,10.636-9.717,18.968-20.362,18.968c-0.5,0-1.009-0.019-1.512-0.055C82.647,141.685,74.162,131.871,74.979,120.626z
	 M244.724,132.962c0.772-10.636,9.717-18.967,20.363-18.967c0.501,0,1.01,0.019,1.513,0.055
	c11.245,0.818,19.729,10.631,18.911,21.877c-0.772,10.637-9.717,18.968-20.363,18.968c-0.5,0-1.009-0.018-1.512-0.055
	c-5.447-0.396-10.414-2.89-13.987-7.022C246.077,143.685,244.328,138.409,244.724,132.962z M142.494,263.008l4.471-1.967
	l2.553,1.967H142.494z M160.166,263.008l3.746-2.498l2.651,2.498H160.166z"/>
<g>
</g>
<g>
</g>
<g>
</g>
<g>
</g>
<g>
</g>
<g>
</g>
<g>
</g>
<g>
</g>
<g>
</g>
<g>
</g>
<g>
</g>
<g>
</g>
<g>
</g>
<g>
</g>
<g>
</g>
</svg>
