<?xml version="1.0"?>
<svg width="50" height="47" xmlns="http://www.w3.org/2000/svg" xmlns:svg="http://www.w3.org/2000/svg">
 <!-- Created with SVG-edit - http://svg-edit.googlecode.com/ -->
 <g>
  <title>Layer 1</title>
  <path id="svg_4" d="m40,46.999994l0,-19.6c0,0 -1.1,-4.1 -5,-3.9s-5.2,0.8 -7,2.9l0,20.6l-10,0l0,-31l10,0l0,4.6c0,0 3.3,-6.4 10,-5.9c6.2,0.4 10.8,4.2 11.8,12.3l0.2,0l0,20l-10,0zm-34,-35c-3.3,0 -6,-2.7 -6,-6s2.7,-6 6,-6s6,2.7 6,6s-2.7,6 -6,6zm5,35l-10,0l0,-31l10,0l0,31z" fill="#444444"/>
 </g>
</svg>