<?xml version="1.0"?>
<svg width="50" height="41" xmlns="http://www.w3.org/2000/svg" xmlns:svg="http://www.w3.org/2000/svg">
 <!-- Created with SVG-edit - http://svg-edit.googlecode.com/ -->
 <g>
  <title>Layer 1</title>
  <path fill="#007f6e" d="m45,6.99999l5,-1c0,0 -4.2,4.7 -5,5c0,0 0,0 0,0c-0.1,2.3 0,3 0,3c-9.6,41.2 -45,23 -45,23c12.9,0.3 14,-5 14,-5c-7.5,-1.1 -9,-6 -9,-6c2.6,1.2 4,-1 4,-1c-8.1,-2.1 -7,-10 -7,-10c1.4,1.2 3.6,1.7 4.9,1.9c-0.9,-1.1 -8.5,-10.2 -3.9,-14.9c0,0 5.6,10 20.3,10.9l1,-0.2c-0.2,-0.7 -0.2,-1.4 -0.2,-2.2c0,-5.8 4.7,-10.5 10.5,-10.5c7,0 8.5,4 8.5,4l5,-3c-0.1,0 -0.6,5 -3.1,6z" id="svg_2"/>
 </g>
</svg>